<svg xmlns="http://www.w3.org/2000/svg" width="1500" height="1040" viewBox="0 0 1500 1040">
  <defs>
    <style>
      .title{font:700 32px "Noto Sans CJK SC","Microsoft YaHei",sans-serif;fill:#172033}
      .part{font:700 21px "Noto Sans CJK SC","Microsoft YaHei",sans-serif;fill:#172033}
      .nodeTitle{font:700 17px "Noto Sans CJK SC","Microsoft YaHei",sans-serif;fill:#172033}
      .nodeBody{font:400 14px "Noto Sans CJK SC","Microsoft YaHei",sans-serif;fill:#475569}
      .note{font:400 15px "Noto Sans CJK SC","Microsoft YaHei",sans-serif;fill:#64748b}
      .entry{fill:#fff7ed;stroke:#fb923c;stroke-width:3}
      .base{fill:#eff6ff;stroke:#60a5fa;stroke-width:2.5}
      .classic{fill:#f0fdf4;stroke:#4ade80;stroke-width:2.5}
      .learn{fill:#f5f3ff;stroke:#a78bfa;stroke-width:2.5}
      .integrate{fill:#fff7ed;stroke:#fb923c;stroke-width:2.5}
      .appendix{fill:#f8fafc;stroke:#94a3b8;stroke-width:2.5;stroke-dasharray:8 6}
      .arrow{stroke:#2563eb;stroke-width:3;fill:none;marker-end:url(#a)}
      .branch{stroke:#64748b;stroke-width:3;fill:none;marker-end:url(#b)}
      .lookup{stroke:#94a3b8;stroke-width:2.5;stroke-dasharray:8 6;fill:none;marker-end:url(#c)}
    </style>
    <marker id="a" markerWidth="10" markerHeight="10" refX="8" refY="3" orient="auto"><path d="M0 0L9 3L0 6Z" fill="#2563eb"/></marker>
    <marker id="b" markerWidth="10" markerHeight="10" refX="8" refY="3" orient="auto"><path d="M0 0L9 3L0 6Z" fill="#64748b"/></marker>
    <marker id="c" markerWidth="10" markerHeight="10" refX="8" refY="3" orient="auto"><path d="M0 0L9 3L0 6Z" fill="#94a3b8"/></marker>
  </defs>
  <rect width="1500" height="1040" fill="#ffffff"/>
  <text x="750" y="44" text-anchor="middle" class="title">机器人运动控制教程知识图谱</text>

  <rect x="590" y="72" width="320" height="72" rx="16" class="entry"/>
  <text x="750" y="102" text-anchor="middle" class="nodeTitle">00 先看全局</text>
  <text x="750" y="127" text-anchor="middle" class="nodeBody">目标、状态、模型、估计、真实闭环</text>

  <text x="750" y="183" text-anchor="middle" class="part">第一部分 · 物理与闭环基础</text>
  <g>
    <rect x="55" y="210" width="180" height="76" rx="14" class="base"/>
    <rect x="255" y="210" width="180" height="76" rx="14" class="base"/>
    <rect x="455" y="210" width="180" height="76" rx="14" class="base"/>
    <rect x="655" y="210" width="180" height="76" rx="14" class="base"/>
    <rect x="855" y="210" width="180" height="76" rx="14" class="base"/>
    <rect x="1055" y="210" width="180" height="76" rx="14" class="base"/>
    <rect x="1255" y="210" width="180" height="76" rx="14" class="base"/>
    <text x="145" y="241" text-anchor="middle" class="nodeTitle">01 坐标与姿态</text><text x="145" y="266" text-anchor="middle" class="nodeBody">怎样描述</text>
    <text x="345" y="241" text-anchor="middle" class="nodeTitle">02 运动学</text><text x="345" y="266" text-anchor="middle" class="nodeBody">关节 → 手脚</text>
    <text x="545" y="241" text-anchor="middle" class="nodeTitle">03 动力学</text><text x="545" y="266" text-anchor="middle" class="nodeBody">力 → 运动</text>
    <text x="745" y="241" text-anchor="middle" class="nodeTitle">04 反馈控制</text><text x="745" y="266" text-anchor="middle" class="nodeBody">测结果再纠偏</text>
    <text x="945" y="241" text-anchor="middle" class="nodeTitle">05 状态估计</text><text x="945" y="266" text-anchor="middle" class="nodeBody">测量 → 状态判断</text>
    <text x="1145" y="241" text-anchor="middle" class="nodeTitle">06 最优化</text><text x="1145" y="266" text-anchor="middle" class="nodeBody">目标 + 约束 → 动作</text>
    <text x="1345" y="241" text-anchor="middle" class="nodeTitle">07 系统架构</text><text x="1345" y="266" text-anchor="middle" class="nodeBody">连接所有模块</text>
    <path d="M235 248H250M435 248H450M635 248H650M835 248H850M1035 248H1050M1235 248H1250" class="arrow"/>
  </g>
  <path d="M750 144V195H145V205" class="arrow"/>

  <text x="385" y="355" text-anchor="middle" class="part">第二部分 · 传统模型控制</text>
  <text x="1115" y="355" text-anchor="middle" class="part">第三部分 · 学习控制</text>
  <g>
    <rect x="55" y="385" width="190" height="76" rx="14" class="classic"/>
    <rect x="270" y="385" width="190" height="76" rx="14" class="classic"/>
    <rect x="485" y="385" width="190" height="76" rx="14" class="classic"/>
    <rect x="165" y="495" width="190" height="76" rx="14" class="classic"/>
    <rect x="380" y="495" width="190" height="76" rx="14" class="classic"/>
    <text x="150" y="417" text-anchor="middle" class="nodeTitle">08 LIP / ZMP</text><text x="150" y="442" text-anchor="middle" class="nodeBody">行走平衡</text>
    <text x="365" y="417" text-anchor="middle" class="nodeTitle">09 SLIP / VMC</text><text x="365" y="442" text-anchor="middle" class="nodeBody">弹簧腿与落脚</text>
    <text x="580" y="417" text-anchor="middle" class="nodeTitle">10 WBC / TSID</text><text x="580" y="442" text-anchor="middle" class="nodeBody">全身任务落实</text>
    <text x="260" y="527" text-anchor="middle" class="nodeTitle">11 SRBD / MPC</text><text x="260" y="552" text-anchor="middle" class="nodeBody">简化模型看未来</text>
    <text x="475" y="527" text-anchor="middle" class="nodeTitle">12 CD / NMPC</text><text x="475" y="552" text-anchor="middle" class="nodeBody">全身动量看未来</text>
    <path d="M150 461V480H580V466M365 461V480" class="branch"/>
    <path d="M580 461V480H260V490M580 480H475V490" class="branch"/>
  </g>
  <g>
    <rect x="800" y="385" width="190" height="76" rx="14" class="learn"/>
    <rect x="1015" y="385" width="190" height="76" rx="14" class="learn"/>
    <rect x="1230" y="385" width="190" height="76" rx="14" class="learn"/>
    <rect x="800" y="495" width="190" height="76" rx="14" class="learn"/>
    <rect x="1015" y="495" width="190" height="76" rx="14" class="learn"/>
    <rect x="1230" y="495" width="190" height="76" rx="14" class="learn"/>
    <text x="895" y="417" text-anchor="middle" class="nodeTitle">13 强化学习</text><text x="895" y="442" text-anchor="middle" class="nodeBody">策略怎样学出来</text>
    <text x="1110" y="417" text-anchor="middle" class="nodeTitle">14 腿足 RL 工程</text><text x="1110" y="442" text-anchor="middle" class="nodeBody">观测、动作、奖励</text>
    <text x="1325" y="417" text-anchor="middle" class="nodeTitle">15 特权学习</text><text x="1325" y="442" text-anchor="middle" class="nodeBody">训练多看、部署少看</text>
    <text x="895" y="527" text-anchor="middle" class="nodeTitle">16 感知行走</text><text x="895" y="552" text-anchor="middle" class="nodeBody">地形证据进入策略</text>
    <text x="1110" y="527" text-anchor="middle" class="nodeTitle">17 模仿学习</text><text x="1110" y="552" text-anchor="middle" class="nodeBody">人体动作 → 机器人</text>
    <text x="1325" y="527" text-anchor="middle" class="nodeTitle">18 多动作策略</text><text x="1325" y="552" text-anchor="middle" class="nodeBody">单技能 → 行为模型</text>
    <path d="M990 423H1010M1205 423H1225" class="branch"/>
    <path d="M1325 461V480H895V490M1110 461V490M1205 533H1225" class="branch"/>
  </g>
  <path d="M1345 286V320H365V380M1345 320H1110V380" class="branch"/>

  <text x="750" y="640" text-anchor="middle" class="part">第四部分 · 两条路线汇合、落地与实践</text>
  <rect x="350" y="675" width="250" height="76" rx="16" class="integrate"/>
  <rect x="625" y="675" width="250" height="76" rx="16" class="integrate"/>
  <rect x="900" y="675" width="250" height="76" rx="16" class="integrate"/>
  <text x="475" y="706" text-anchor="middle" class="nodeTitle">19 Sim2Real</text><text x="475" y="731" text-anchor="middle" class="nodeBody">接口、时延、模型与现实</text>
  <text x="750" y="706" text-anchor="middle" class="nodeTitle">20 传统与学习如何选</text><text x="750" y="731" text-anchor="middle" class="nodeBody">按问题、约束与风险组合</text>
  <text x="1025" y="706" text-anchor="middle" class="nodeTitle">21 项目路线</text><text x="1025" y="731" text-anchor="middle" class="nodeBody">实现、验收、日志、安全部署</text>
  <path d="M365 571V610H475V670M1110 571V610H475" class="branch"/>
  <path d="M600 713H620M875 713H895" class="branch"/>

  <rect x="390" y="835" width="320" height="112" rx="16" class="appendix"/>
  <rect x="790" y="835" width="320" height="112" rx="16" class="appendix"/>
  <text x="550" y="870" text-anchor="middle" class="nodeTitle">附录 A · 数学急救包</text>
  <text x="550" y="898" text-anchor="middle" class="nodeBody">遇到向量、导数、概率、秩或优化障碍时按需查阅</text>
  <text x="950" y="870" text-anchor="middle" class="nodeTitle">附录 B · 缩写和符号</text>
  <text x="950" y="898" text-anchor="middle" class="nodeBody">遇到陌生缩写、符号复用和单位问题时查阅</text>
  <path d="M550 835V795H145V290" class="lookup"/>
  <path d="M950 835V790H1345V290" class="lookup"/>
  <text x="750" y="1002" text-anchor="middle" class="note">实线：主要学习依赖　　虚线：按需查阅；08/09 与 16/17 是可并行理解的专题，不是严格升级链</text>
</svg>
